<svg width="960" height="1200" viewBox="0 0 960 1200" fill="none" xmlns="http://www.w3.org/2000/svg">
  <defs>
    <linearGradient id="bg" x1="0" y1="0" x2="960" y2="1200">
      <stop stop-color="#112034"/>
      <stop offset="1" stop-color="#485A71"/>
    </linearGradient>
    <linearGradient id="doll" x1="480" y1="180" x2="480" y2="1040">
      <stop stop-color="#FAFCFF"/>
      <stop offset="1" stop-color="#B7C4D7"/>
    </linearGradient>
  </defs>
  <rect width="960" height="1200" rx="48" fill="url(#bg)"/>
  <path d="M421 215C354 236 304 317 304 405C304 482 336 537 384 590C293 652 244 741 244 922H716C716 741 667 652 576 590C624 537 656 482 656 405C656 317 606 236 539 215C530 187 505 160 480 160C455 160 430 187 421 215Z" fill="url(#doll)"/>
  <circle cx="420" cy="402" r="20" fill="#1E2D40"/>
  <circle cx="540" cy="402" r="20" fill="#1E2D40"/>
  <path d="M408 508C449 537 511 537 552 508" stroke="#1E2D40" stroke-width="14" stroke-linecap="round"/>
  <path d="M406 320C428 290 458 274 480 274C502 274 532 290 554 320" stroke="#8A4E4E" stroke-width="20" stroke-linecap="round"/>
  <text x="168" y="1080" fill="#F1F5FA" font-family="Georgia, serif" font-size="72">Portrait Matryoshka</text>
</svg>
