<svg width="960" height="1200" viewBox="0 0 960 1200" fill="none" xmlns="http://www.w3.org/2000/svg">
  <defs>
    <linearGradient id="bg" x1="0" y1="0" x2="960" y2="1200">
      <stop stop-color="#16253D"/>
      <stop offset="1" stop-color="#59616A"/>
    </linearGradient>
    <linearGradient id="doll" x1="480" y1="180" x2="480" y2="1040">
      <stop stop-color="#FFFFFF"/>
      <stop offset="1" stop-color="#C9D2DD"/>
    </linearGradient>
  </defs>
  <rect width="960" height="1200" rx="48" fill="url(#bg)"/>
  <path d="M421 215C354 236 304 317 304 405C304 482 336 537 384 590C293 652 244 741 244 922H716C716 741 667 652 576 590C624 537 656 482 656 405C656 317 606 236 539 215C530 187 505 160 480 160C455 160 430 187 421 215Z" fill="url(#doll)"/>
  <circle cx="420" cy="410" r="22" fill="#16253D"/>
  <circle cx="540" cy="410" r="22" fill="#16253D"/>
  <path d="M410 515C453 547 507 547 550 515" stroke="#16253D" stroke-width="14" stroke-linecap="round"/>
  <circle cx="480" cy="670" r="110" fill="#C95E6A"/>
  <path d="M480 595L501 650H560L513 687L531 744L480 708L429 744L447 687L400 650H459L480 595Z" fill="#F8F4EE"/>
  <text x="96" y="1080" fill="#EDF2F8" font-family="Georgia, serif" font-size="72">Printed Collection</text>
</svg>

